<svg width="36" height="36" viewBox="0 0 36 36" fill="none" xmlns="http://www.w3.org/2000/svg">
<path d="M7.57031 29.3633H28.9922C31.4297 29.3633 32.6719 28.1445 32.6719 25.7305V13.4609C32.6719 11.0469 31.4297 9.83984 28.9922 9.83984H25.6406C24.7148 9.83984 24.4336 9.65234 23.9062 9.06641L22.9688 8.01172C22.3828 7.36719 21.7852 7.01562 20.5781 7.01562H15.9023C14.6953 7.01562 14.0977 7.36719 13.5117 8.01172L12.5742 9.06641C12.0469 9.64062 11.7539 9.83984 10.8398 9.83984H7.57031C5.12109 9.83984 3.89062 11.0469 3.89062 13.4609V25.7305C3.89062 28.1445 5.12109 29.3633 7.57031 29.3633ZM7.59375 27.4766C6.44531 27.4766 5.77734 26.8555 5.77734 25.6367V13.5664C5.77734 12.3477 6.44531 11.7266 7.59375 11.7266H11.3086C12.3633 11.7266 12.9375 11.5273 13.5234 10.8711L14.4375 9.83984C15.1055 9.08984 15.457 8.90234 16.4883 8.90234H19.9922C21.0234 8.90234 21.375 9.08984 22.043 9.83984L22.957 10.8711C23.543 11.5273 24.1172 11.7266 25.1719 11.7266H28.957C30.1172 11.7266 30.7852 12.3477 30.7852 13.5664V25.6367C30.7852 26.8555 30.1172 27.4766 28.957 27.4766H7.59375ZM18.2812 25.7891C21.8203 25.7891 24.668 22.9531 24.668 19.3789C24.668 15.8164 21.832 12.9805 18.2812 12.9805C14.7305 12.9805 11.8828 15.8164 11.8828 19.3789C11.8828 22.9531 14.7305 25.7891 18.2812 25.7891ZM25.1484 15.0664C25.1484 15.8867 25.8281 16.5312 26.625 16.5312C27.4102 16.5195 28.0781 15.875 28.0781 15.0664C28.0781 14.293 27.4102 13.6133 26.625 13.6133C25.8281 13.6133 25.1484 14.293 25.1484 15.0664ZM18.2812 24.0078C15.7383 24.0078 13.6523 21.957 13.6523 19.3789C13.6523 16.8125 15.7266 14.75 18.2812 14.75C20.8359 14.75 22.8984 16.8125 22.8984 19.3789C22.8984 21.957 20.8359 24.0078 18.2812 24.0078Z" fill="#212121"/>
</svg>
