<svg width="13" height="12" viewBox="0 0 13 12" fill="none" xmlns="http://www.w3.org/2000/svg">
<path d="M2.48765 12C3.26146 12 4.84347 11.221 6.00705 10.3962C10.0022 10.505 13 8.20811 13 5.20668C13 2.32554 10.1111 0 6.5 0C2.88889 0 0 2.32554 0 5.20668C0 7.08544 1.2037 8.75227 3.01499 9.58854C2.75705 10.0926 2.27557 10.7685 2.01764 11.1064C1.71384 11.5017 1.89727 12 2.48765 12ZM3.08951 11.0492C3.04365 11.0663 3.02645 11.032 3.05511 10.9976C3.3761 10.6024 3.83466 10.0067 4.02954 9.63437C4.19004 9.34224 4.14991 9.07876 3.78307 8.90692C1.98325 8.07064 0.951499 6.73604 0.951499 5.20668C0.951499 2.86396 3.41049 0.950835 6.5 0.950835C9.59524 0.950835 12.0542 2.86396 12.0542 5.20668C12.0542 7.55513 9.59524 9.46826 6.5 9.46826C6.38536 9.46826 6.20767 9.46253 5.97839 9.4568C5.73765 9.45107 5.55423 9.53127 5.33642 9.7031C4.63139 10.2129 3.61111 10.8372 3.08951 11.0492Z" fill="#9E9E9E"/>
</svg>
