<svg width="15" height="17" viewBox="0 0 15 17" fill="none" xmlns="http://www.w3.org/2000/svg">
<path d="M0.641892 17C0.996622 17 1.28378 16.7141 1.28378 16.3502V11.5326C1.49493 11.4373 2.28885 11.1254 3.53041 11.1254C6.65541 11.1254 8.61486 12.6937 11.5878 12.6937C12.9054 12.6937 13.3953 12.5464 14.0372 12.2518C14.6199 11.9832 15 11.5326 15 10.7355V1.94088C15 1.47299 14.6115 1.20438 14.1216 1.20438C13.7078 1.20438 12.9307 1.5683 11.478 1.5683C8.50507 1.5683 6.55405 0 3.42061 0C2.10304 0 1.60473 0.147299 0.962838 0.441896C0.380068 0.7105 0 1.16106 0 1.94954V16.3502C0 16.7054 0.295608 17 0.641892 17ZM11.5878 11.3853C8.77534 11.3853 6.78209 9.81702 3.53041 9.81702C2.60135 9.81702 1.75676 9.92966 1.28378 10.129V1.99286C1.40203 1.70693 2.10304 1.30836 3.42061 1.30836C6.39358 1.30836 8.37838 2.87666 11.478 2.87666C12.3986 2.87666 13.1588 2.76402 13.7247 2.59939V10.7008C13.6064 10.9867 12.9054 11.3853 11.5878 11.3853Z" fill="#212121"/>
</svg>
