<svg width="12" height="12" viewBox="0 0 12 12" fill="none" xmlns="http://www.w3.org/2000/svg">
<path d="M0 3.94771C0 6.73203 2.1571 9.47059 5.56495 11.8235C5.69184 11.9085 5.87311 12 6 12C6.12689 12 6.30816 11.9085 6.44109 11.8235C9.8429 9.47059 12 6.73203 12 3.94771C12 1.63399 10.5317 0 8.57402 0C7.45619 0 6.54985 0.575163 6 1.45752C5.46224 0.581699 4.54381 0 3.42598 0C1.46828 0 0 1.63399 0 3.94771ZM0.97281 3.94771C0.97281 2.20915 2.01208 1.05229 3.4139 1.05229C4.54985 1.05229 5.20242 1.81699 5.58912 2.47059C5.75227 2.73203 5.85498 2.80392 6 2.80392C6.14502 2.80392 6.23565 2.72549 6.41088 2.47059C6.82779 1.83007 7.45619 1.05229 8.5861 1.05229C9.98792 1.05229 11.0272 2.20915 11.0272 3.94771C11.0272 6.37908 8.65257 9 6.12689 10.817C6.06647 10.8627 6.02417 10.8954 6 10.8954C5.97583 10.8954 5.93354 10.8627 5.87915 10.817C3.34743 9 0.97281 6.37908 0.97281 3.94771Z" fill="#9E9E9E"/>
</svg>
