<svg width="38" height="32" viewBox="0 0 38 32" fill="none" xmlns="http://www.w3.org/2000/svg">
<path d="M9.5 28.5C9.5 30.433 7.933 32 6 32H3.5C1.567 32 0 30.433 0 28.5V3.5C0 1.567 1.567 0 3.5 0H6C7.933 0 9.5 1.567 9.5 3.5V28.5ZM23.75 28.5C23.75 30.433 22.183 32 20.25 32H17.75C15.817 32 14.25 30.433 14.25 28.5V14.5342C14.25 12.6012 15.817 11.0342 17.75 11.0342H20.25C22.183 11.0342 23.75 12.6012 23.75 14.5342V28.5ZM38 28.5C38 30.433 36.433 32 34.5 32H32C30.067 32 28.5 30.433 28.5 28.5V22.2588C28.5 20.3258 30.067 18.7588 32 18.7588H34.5C36.433 18.7588 38 20.3258 38 22.2588V28.5Z" fill="#92C17D"/>
</svg>
