<svg width="38" height="32" viewBox="0 0 38 32" fill="none" xmlns="http://www.w3.org/2000/svg">
<path d="M19 0C29.4934 0 38 6.71573 38 15C38 17.8116 37.0191 20.4416 35.3142 22.6905C35.0931 22.9821 35.0314 23.3674 35.1681 23.7068L37.6184 29.7875C37.9889 30.707 36.9395 31.5472 36.1233 30.9846L30.8961 27.3812C30.5754 27.1601 30.1566 27.1473 29.8149 27.3344C26.7454 29.015 23.0184 30 19 30C8.50659 30 0 23.2843 0 15C0 6.71573 8.50659 0 19 0Z" fill="#408A21"/>
<rect x="9" y="10" width="20" height="4" rx="2" fill="#92C17D"/>
<rect x="9" y="17" width="13" height="4" rx="2" fill="#92C17D"/>
</svg>
