<svg width="40" height="32" viewBox="0 0 40 32" fill="none" xmlns="http://www.w3.org/2000/svg">
<path d="M19.7339 0.166626C30.414 0.166816 39.0718 6.98449 39.0718 15.3942C39.0717 18.2509 38.0712 20.9228 36.3329 23.2071C36.1109 23.4989 36.0489 23.8852 36.1863 24.2252L38.7035 30.4548C39.0748 31.3739 38.0265 32.2151 37.2097 31.6535L31.8312 27.9554C31.5109 27.7352 31.0932 27.7224 30.7521 27.9089C27.6259 29.6186 23.8286 30.6207 19.7339 30.6207C9.05368 30.6207 0.395203 23.8038 0.39502 15.3942C0.39502 6.98437 9.05357 0.166626 19.7339 0.166626Z" fill="#92C17D"/>
<rect x="9.55533" y="10.3181" width="20.3562" height="4.06061" rx="2.0303" fill="#C7E0BC"/>
<rect x="9.55533" y="17.4242" width="13.2316" height="4.06061" rx="2.0303" fill="#C7E0BC"/>
</svg>
