<svg width="38" height="31" viewBox="0 0 38 31" fill="none" xmlns="http://www.w3.org/2000/svg">
<path d="M37.4321 15.8288C37.4321 15.8304 37.4334 15.8317 37.435 15.8317V15.8317C37.4376 15.8317 37.4388 15.835 37.4368 15.8367L37.4337 15.8392C37.4327 15.84 37.4321 15.8412 37.4321 15.8425V15.8599C37.4321 15.8826 37.4137 15.901 37.3911 15.901H37.3816C37.3695 15.901 37.3578 15.9054 37.3486 15.9133L21.0822 29.9459C19.9563 30.9171 18.2888 30.9171 17.163 29.9459L0.896563 15.9133C0.887385 15.9054 0.875667 15.901 0.863546 15.901H0.85408C0.831392 15.901 0.813 15.8826 0.813 15.8599V15.8425C0.813 15.8412 0.812429 15.84 0.811446 15.8392L0.808385 15.8367C0.806329 15.835 0.807518 15.8317 0.810174 15.8317V15.8317C0.811735 15.8317 0.813 15.8304 0.813 15.8288V3.16663C0.813 1.50977 2.15615 0.166626 3.813 0.166626H34.4321C36.089 0.166626 37.4321 1.50977 37.4321 3.16663V15.8288Z" fill="#92C17D"/>
</svg>
