<svg width="36" height="31" viewBox="0 0 36 31" fill="none" xmlns="http://www.w3.org/2000/svg">
<path d="M35.9893 15.4278C35.9893 15.4294 35.9906 15.4307 35.9921 15.4307V15.4307C35.9948 15.4307 35.996 15.434 35.9939 15.4357L35.9909 15.4382C35.9899 15.439 35.9893 15.4402 35.9893 15.4415V15.4589C35.9893 15.4816 35.9709 15.5 35.9482 15.5H35.9388C35.9266 15.5 35.9149 15.5044 35.9057 15.5123L19.9626 29.3024C18.8358 30.2771 17.1643 30.2771 16.0375 29.3025L0.0943528 15.5123C0.0851729 15.5044 0.0734405 15.5 0.0613031 15.5H0.0518642C0.0291764 15.5 0.0107843 15.4816 0.0107843 15.4589V15.4415C0.0107843 15.4402 0.0102138 15.439 0.00923004 15.4382L0.00616898 15.4357C0.00411359 15.434 0.00530273 15.4307 0.00795841 15.4307V15.4307C0.00951908 15.4307 0.0107843 15.4294 0.0107843 15.4278V3C0.0107843 1.34315 1.35393 0 3.01078 0H32.9893C34.6462 0 35.9893 1.34315 35.9893 3V15.4278Z" fill="#408A21"/>
</svg>
