<svg width="38" height="35" viewBox="0 0 38 35" fill="none" xmlns="http://www.w3.org/2000/svg">
<path d="M18.6696 18.4391C27.502 18.4393 34.9132 24.0134 36.9457 31.5326C37.3975 33.2041 36.0009 34.6813 34.2695 34.6813H3.0687C1.33726 34.6813 -0.0593507 33.2041 0.392486 31.5326C2.42517 24.0132 9.83694 18.4391 18.6696 18.4391ZM18.6696 0.166626C23.4474 0.166866 27.321 4.03013 27.321 8.79553C27.3209 13.5609 23.4474 17.4242 18.6696 17.4244C13.8916 17.4244 10.0183 13.561 10.0182 8.79553V8.79553C10.0182 7.99764 9.42225 7.27307 8.62436 7.27307H5.97769C5.41705 7.27307 4.96256 6.81858 4.96256 6.25793V6.25793C4.96256 5.69729 5.41705 5.2428 5.97769 5.2428H8.85261C10.0298 5.2428 11.0623 4.52335 11.7747 3.58623C13.354 1.50884 15.854 0.166626 18.6696 0.166626Z" fill="#92C17D"/>
</svg>
