<svg width="37" height="34" viewBox="0 0 37 34" fill="none" xmlns="http://www.w3.org/2000/svg">
<path d="M18.467 18C27.1273 18.0001 34.3966 23.4685 36.4109 30.8527C36.8665 32.5229 35.4697 34 33.7384 34H3.19559C1.46438 34 0.0675366 32.5229 0.523135 30.8527C2.53743 23.4685 9.8066 18 18.467 18ZM18.467 0C23.1613 0.000145373 26.967 3.80567 26.967 8.5C26.967 13.1943 23.1613 16.9999 18.467 17C13.7726 17 9.96701 13.1944 9.96701 8.5V8.5C9.96701 7.71377 9.38002 7 8.59378 7H6.00022C5.44793 7 5.00022 6.55228 5.00022 6V6C5.00022 5.44772 5.44793 5 6.00022 5H8.7857C9.96391 5 10.9966 4.27869 11.7121 3.34258C13.2649 1.31095 15.7124 0 18.467 0Z" fill="#408A21"/>
</svg>
